<?xml version="1.0"?>
<svg width="375.879" height="251.559" xmlns="http://www.w3.org/2000/svg" xmlns:svg="http://www.w3.org/2000/svg" version="1.0">
 <metadata id="metadata60">image/svg+xml</metadata>

 <g class="layer">
  <title>Layer 1</title>
  <path d="m0.82,78.61l0,-57.33l11.12,0.01l11.11,0l0,57.32l0,57.33l-11.11,0l-11.12,0l0,-57.33zm0,114.91l0,-57.08l11.12,0l11.11,0l0,57.08l0,57.07l-11.11,0l-11.12,0l0,-57.07z" display="inline" enable-background="accumulate" fill="#d5e5ff" fill-rule="evenodd" id="path3899" marker-end="none" marker-mid="none" marker-start="none" stroke-dashoffset="0" stroke-linecap="square" stroke-miterlimit="4" stroke-width="3"/>
  <path d="m202.29,10.77l0,-9.84l86.36,0l86.37,0l0,9.84l0,9.85l-86.37,0l-86.36,0l0,-9.85zm-178.29,0l0,-9.84l88.77,0l88.77,0l0,9.84l0,9.85l-88.77,0l-88.77,0l0,-9.85z" display="inline" enable-background="accumulate" fill="#fff6d5" fill-rule="evenodd" id="path3896" marker-end="none" marker-mid="none" marker-start="none" stroke-dashoffset="0" stroke-linecap="square" stroke-miterlimit="4" stroke-width="3">Непрерывны</path>
  <path d="m39.4,80.58l146.76,0" fill="none" id="path2488" stroke="#000000" stroke-miterlimit="10" stroke-width="0.59"/>
  <path d="m176.72,82.15l7.87,-1.57l-7.87,-1.58l1.57,1.58l-1.57,1.57" fill="#000000" fill-rule="evenodd" id="path2490"/>
  <path d="m176.72,82.15l7.87,-1.57l-7.87,-1.58l1.57,1.58l-1.57,1.57z" fill="none" id="path2492" stroke="#000000" stroke-miterlimit="10" stroke-width="0.59"/>
  <path d="m50.03,117.42l0,-87.87" fill="none" id="path2502" stroke="#000000" stroke-miterlimit="10" stroke-width="0.59"/>
  <path d="m51.6,39l-1.57,-7.87l-1.58,7.87l1.58,-1.57l1.57,1.57" fill="#000000" fill-rule="evenodd" id="path2504"/>
  <path d="m51.6,39l-1.57,-7.87l-1.58,7.87l1.58,-1.57l1.57,1.57z" fill="none" id="path2506" stroke="#000000" stroke-miterlimit="10" stroke-width="0.59"/>
  <path d="m50.03,80.58c21.94,-36.23 32.17,-39.13 55.11,-0.87c23.43,39.13 33.36,38.59 56.22,0.87" fill="none" id="path2508" stroke="#ff0000" stroke-miterlimit="10" stroke-width="1.18"/>
  <path d="m217.76,81.2l141.73,0" fill="none" id="path2520" stroke="#000000" stroke-miterlimit="10" stroke-width="0.59"/>
  <path d="m350.04,82.77l7.88,-1.57l-7.88,-1.57l1.58,1.57l-1.58,1.57" fill="#000000" fill-rule="evenodd" id="path2522"/>
  <path d="m350.04,82.77l7.88,-1.57l-7.88,-1.57l1.58,1.57l-1.58,1.57z" fill="none" id="path2524" stroke="#000000" stroke-miterlimit="10" stroke-width="0.59"/>
  <path d="m228.39,117.42l0,-87.16" fill="none" id="path2534" stroke="#000000" stroke-miterlimit="10" stroke-width="0.59"/>
  <path d="m229.97,39.7l-1.58,-7.87l-1.57,7.87l1.57,-1.57l1.58,1.57" fill="#000000" fill-rule="evenodd" id="path2536"/>
  <path d="m229.97,39.7l-1.58,-7.87l-1.57,7.87l1.57,-1.57l1.58,1.57z" fill="none" id="path2538" stroke="#000000" stroke-miterlimit="10" stroke-width="0.59"/>
  <path d="m230.91,81.2c0,1.39 -1.13,2.52 -2.52,2.52c-1.39,0 -2.52,-1.13 -2.52,-2.52c0,-1.39 1.13,-2.52 2.52,-2.52c1.39,0 2.52,1.13 2.52,2.52m8.82,-13.62c0,1.39 -1.13,2.52 -2.52,2.52c-1.39,0 -2.52,-1.13 -2.52,-2.52c0,-1.39 1.13,-2.52 2.52,-2.52c1.39,0 2.52,1.13 2.52,2.52m8.9,-10.24c0,1.39 -1.13,2.52 -2.52,2.52c-1.39,0 -2.52,-1.13 -2.52,-2.52c0,-1.39 1.13,-2.52 2.52,-2.52c1.39,0 2.52,1.13 2.52,2.52m8.89,-4.41c0,1.39 -1.12,2.52 -2.52,2.52c-1.39,0 -2.51,-1.13 -2.51,-2.52c0,-1.39 1.12,-2.52 2.51,-2.52c1.4,0 2.52,1.13 2.52,2.52m8.82,2.52c0,1.39 -1.13,2.52 -2.52,2.52c-1.39,0 -2.52,-1.13 -2.52,-2.52c0,-1.39 1.13,-2.52 2.52,-2.52c1.39,0 2.52,1.13 2.52,2.52m8.82,8.82c0,1.39 -1.13,2.52 -2.52,2.52c-1.39,0 -2.52,-1.13 -2.52,-2.52c0,-1.39 1.13,-2.52 2.52,-2.52c1.39,0 2.52,1.13 2.52,2.52m8.9,12.91c0,1.4 -1.13,2.52 -2.52,2.52c-1.39,0 -2.52,-1.12 -2.52,-2.52c0,-1.39 1.13,-2.52 2.52,-2.52c1.39,0 2.52,1.13 2.52,2.52m8.9,13.94c0,1.39 -1.13,2.52 -2.52,2.52c-1.39,0 -2.52,-1.13 -2.52,-2.52c0,-1.39 1.13,-2.52 2.52,-2.52c1.39,0 2.52,1.13 2.52,2.52m8.81,11.5c0,1.39 -1.12,2.52 -2.52,2.52c-1.39,0 -2.51,-1.13 -2.51,-2.52c0,-1.4 1.12,-2.52 2.51,-2.52c1.4,0 2.52,1.12 2.52,2.52m8.82,6.3c0,1.39 -1.13,2.52 -2.52,2.52c-1.39,0 -2.52,-1.13 -2.52,-2.52c0,-1.4 1.13,-2.53 2.52,-2.53c1.39,0 2.52,1.13 2.52,2.53m8.9,-0.56c0,1.39 -1.13,2.52 -2.52,2.52c-1.39,0 -2.52,-1.13 -2.52,-2.52c0,-1.39 1.13,-2.52 2.52,-2.52c1.39,0 2.52,1.13 2.52,2.52m8.9,-7.16c0,1.39 -1.13,2.52 -2.52,2.52c-1.39,0 -2.52,-1.13 -2.52,-2.52c0,-1.39 1.13,-2.52 2.52,-2.52c1.39,0 2.52,1.13 2.52,2.52m8.82,-12.05c0,1.39 -1.13,2.52 -2.52,2.52c-1.39,0 -2.52,-1.13 -2.52,-2.52c0,-1.39 1.13,-2.52 2.52,-2.52c1.39,0 2.52,1.13 2.52,2.52" fill="#ff0000" fill-rule="evenodd" id="path2540"/>
  <path d="m228.39,81.2l0,0zm8.82,0l0,-13.62m8.9,13.62l0,-23.86m8.89,23.86l0,-28.27m8.82,28.27l0,-25.75m8.82,25.75l0,-16.93m8.9,16.93l0,-4.02m8.9,4.02l0,9.92m8.81,-9.92l0,21.42m8.82,-21.42l0,27.72m8.9,-27.72l0,27.16m8.9,-27.16l0,20m8.82,-20l0,7.95" fill="none" id="path2566" stroke="#ff0000" stroke-miterlimit="10" stroke-width="1.18"/>
  <path d="m39.4,195.71l146.76,0" fill="none" id="path2590" stroke="#000000" stroke-miterlimit="10" stroke-width="0.59"/>
  <path d="m176.72,197.28l7.87,-1.57l-7.87,-1.58l1.57,1.58l-1.57,1.57" fill="#000000" fill-rule="evenodd" id="path2592"/>
  <path d="m176.72,197.28l7.87,-1.57l-7.87,-1.58l1.57,1.58l-1.57,1.57z" fill="none" id="path2594" stroke="#000000" stroke-miterlimit="10" stroke-width="0.59"/>
  <path d="m50.03,232.56l0,-87.88" fill="none" id="path2604" stroke="#000000" stroke-miterlimit="10" stroke-width="0.59"/>
  <path d="m51.6,154.13l-1.57,-7.87l-1.58,7.87l1.58,-1.57l1.57,1.57" fill="#000000" fill-rule="evenodd" id="path2606"/>
  <path d="m51.6,154.13l-1.57,-7.87l-1.58,7.87l1.58,-1.57l1.57,1.57zm-1.57,45.12l0,-7.09" fill="none" id="path2608" stroke="#000000" stroke-miterlimit="10" stroke-width="0.59"/>
  <path d="m50.03,195.71l4.48,0l0.16,-14.18l10.32,0l0.23,-14.17l25.44,0l0.15,14.17l10.32,0l0.23,14.18l8.66,0l0.24,14.17l10.24,0l0.23,14.17l25.43,0l0.24,-14.17l10.24,0l0.23,-14.17l4.49,0" fill="none" id="path2610" stroke="#ff0000" stroke-miterlimit="10" stroke-width="1.18" transform="matrix(1 0 0 1 0 0)"/>
  <path d="m46.48,167.36l7.09,0m-7.09,14.17l7.09,0m-7.09,28.35l7.09,0m-7.09,14.17l7.09,0" fill="none" id="path2612" stroke="#000000" stroke-miterlimit="10" stroke-width="0.59"/>
  <path d="m217.76,195.71l141.73,0" fill="none" id="path2624" stroke="#000000" stroke-miterlimit="10" stroke-width="0.59"/>
  <path d="m350.04,197.28l7.88,-1.57l-7.88,-1.58l1.58,1.58l-1.58,1.57" fill="#000000" fill-rule="evenodd" id="path2626"/>
  <path d="m350.04,197.28l7.88,-1.57l-7.88,-1.58l1.58,1.58l-1.58,1.57z" fill="none" id="path2628" stroke="#000000" stroke-miterlimit="10" stroke-width="0.59"/>
  <path d="m228.39,232.56l0,-87.88" fill="none" id="path2638" stroke="#000000" stroke-miterlimit="10" stroke-width="0.59"/>
  <path d="m229.97,154.13l-1.58,-7.87l-1.57,7.87l1.57,-1.57l1.58,1.57" fill="#000000" fill-rule="evenodd" id="path2640"/>
  <path d="m229.97,154.13l-1.58,-7.87l-1.57,7.87l1.57,-1.57l1.58,1.57zm-1.58,45.12l0,-7.09" fill="none" id="path2642" stroke="#000000" stroke-miterlimit="10" stroke-width="0.59"/>
  <path d="m230.91,195.71c0,1.39 -1.13,2.51 -2.52,2.51c-1.39,0 -2.52,-1.12 -2.52,-2.51c0,-1.4 1.13,-2.52 2.52,-2.52c1.39,0 2.52,1.12 2.52,2.52m8.82,-14.18c0,1.4 -1.13,2.52 -2.52,2.52c-1.39,0 -2.52,-1.12 -2.52,-2.52c0,-1.39 1.13,-2.52 2.52,-2.52c1.39,0 2.52,1.13 2.52,2.52m8.9,-14.17c0,1.39 -1.13,2.52 -2.52,2.52c-1.39,0 -2.52,-1.13 -2.52,-2.52c0,-1.39 1.13,-2.52 2.52,-2.52c1.39,0 2.52,1.13 2.52,2.52m8.89,0c0,1.39 -1.12,2.52 -2.52,2.52c-1.39,0 -2.51,-1.13 -2.51,-2.52c0,-1.39 1.12,-2.52 2.51,-2.52c1.4,0 2.52,1.13 2.52,2.52m8.82,0c0,1.39 -1.13,2.52 -2.52,2.52c-1.39,0 -2.52,-1.13 -2.52,-2.52c0,-1.39 1.13,-2.52 2.52,-2.52c1.39,0 2.52,1.13 2.52,2.52m8.82,14.17c0,1.4 -1.13,2.52 -2.52,2.52c-1.39,0 -2.52,-1.12 -2.52,-2.52c0,-1.39 1.13,-2.52 2.52,-2.52c1.39,0 2.52,1.13 2.52,2.52m8.9,14.18c0,1.39 -1.13,2.51 -2.52,2.51c-1.39,0 -2.52,-1.12 -2.52,-2.51c0,-1.4 1.13,-2.52 2.52,-2.52c1.39,0 2.52,1.12 2.52,2.52m8.9,14.17c0,1.39 -1.13,2.52 -2.52,2.52c-1.39,0 -2.52,-1.13 -2.52,-2.52c0,-1.39 1.13,-2.52 2.52,-2.52c1.39,0 2.52,1.13 2.52,2.52m8.81,14.17c0,1.39 -1.12,2.52 -2.52,2.52c-1.39,0 -2.51,-1.13 -2.51,-2.52c0,-1.39 1.12,-2.52 2.51,-2.52c1.4,0 2.52,1.13 2.52,2.52m8.82,0c0,1.39 -1.13,2.52 -2.52,2.52c-1.39,0 -2.52,-1.13 -2.52,-2.52c0,-1.39 1.13,-2.52 2.52,-2.52c1.39,0 2.52,1.13 2.52,2.52m8.9,0c0,1.39 -1.13,2.52 -2.52,2.52c-1.39,0 -2.52,-1.13 -2.52,-2.52c0,-1.39 1.13,-2.52 2.52,-2.52c1.39,0 2.52,1.13 2.52,2.52m8.9,-14.17c0,1.39 -1.13,2.52 -2.52,2.52c-1.39,0 -2.52,-1.13 -2.52,-2.52c0,-1.39 1.13,-2.52 2.52,-2.52c1.39,0 2.52,1.13 2.52,2.52m8.82,0c0,1.39 -1.13,2.52 -2.52,2.52c-1.39,0 -2.52,-1.13 -2.52,-2.52c0,-1.39 1.13,-2.52 2.52,-2.52c1.39,0 2.52,1.13 2.52,2.52" fill="#ff0000" fill-rule="evenodd" id="path2644"/>
  <path d="m228.39,195.71l0,0zm8.82,0l0,-14.18m8.9,14.18l0,-28.35m8.89,28.35l0,-28.35m8.82,28.35l0,-28.35m8.82,28.35l0,-14.18m8.9,14.18l0,0zm8.9,0l0,14.17m8.81,-14.17l0,28.34m8.82,-28.34l0,28.34m8.9,-28.34l0,28.34m8.9,-28.34l0,14.17m8.82,-14.17l0,14.17" fill="none" id="path2670" stroke="#ff0000" stroke-miterlimit="10" stroke-width="1.18"/>
  <path d="m224.85,167.36l7.09,0m-7.09,14.17l7.09,0m-7.09,28.35l7.09,0m-7.09,14.17l7.09,0" fill="none" id="path2672" stroke="#000000" stroke-miterlimit="10" stroke-width="0.59"/>
  <path d="m202.01,20.8l0,-20.55m173.37,240.35l0,-104.17m-374.88,114.63l0,-20.55m23.15,20.55l0,-20.55m178.36,20.55l0,-20.55m-178.36,10.09l0,-104.17m0.25,-135.93l351.73,0m-351.98,20.3l0,-20.55m351.73,20.55l0,-20.55m-375.13,20.8l375.38,0m-375.13,104.42l0,-104.17m23.15,104.17l0,-104.17m178.36,104.17l0,-104.17m173.37,104.17l0,-104.17m-374.88,114.63l0,-20.55m23.15,20.55l0,-20.55m178.36,20.55l0,-20.55m173.37,20.55l0,-20.55m-375.13,20.8l375.38,0m-375.13,104.42l0,-104.17m201.51,104.17l0,-104.17m173.37,114.63l0,-20.55m-375.13,20.8l375.38,0" fill="none" id="path2466" stroke="#000000" stroke-miterlimit="10" stroke-width="0.5" transform="matrix(1 0 0 1 0 0)"/>
  <text fill="#000000" font-family="Bitstream Vera Sans" font-size="10px" font-style="normal" font-weight="normal" id="text43" stroke-width="1px" transform="matrix(0,-1,1,0,0,0)" xml:space="preserve">
   <tspan id="tspan39" x="-118.91" y="15.39">Неквантованные</tspan>
   <tspan id="tspan41" x="-219.88" y="15.39">Квантованные</tspan>
  </text>
  <path d="m210.37,237.44c1.16,0.03 1.94,0.52 2.84,0.96c0.7,0.34 1.35,0.6 2.17,1.03c0.67,0.36 1.38,0.77 2.1,1.19c1.02,0.6 1.86,1.14 2.66,1.56c0.54,0.29 1.48,0.69 2.21,0.96c0.76,0.28 1.51,0.54 2.81,0.97c0.7,0.23 1.72,0.51 2.48,0.9c0.75,0.39 1.54,0.86 2.14,1.31c0.77,0.57 1.62,0.91 2.32,1.12c1.12,0.35 1.76,0.51 2.77,0.7c0.8,0.15 1.62,0.24 2.68,0.37l0.76,0.09" fill="none" id="svg_1" stroke-linecap="square" transform="matrix(1 0 0 1 0 0)"/>
  <text fill="#000000" font-family="Bitstream Vera Sans" font-size="10px" id="svg_3" stroke-linecap="square" stroke-width="1px" text-anchor="middle" transform="matrix(1 0 0 1 0 0)" x="296.12" xml:space="preserve" y="14.44">Дискретные</text>
  <text fill="#000000" font-family="Bitstream Vera Sans" font-size="10px" id="svg_5" stroke-linecap="square" stroke-width="1px" text-anchor="middle" x="181.12" xml:space="preserve" y="91.19">t</text>
  <text fill="#000000" font-family="Bitstream Vera Sans" font-size="10px" id="svg_6" stroke-linecap="square" stroke-width="1px" text-anchor="middle" transform="matrix(1 0 0 1.04495 0 -9.21026)" x="181.12" xml:space="preserve" y="206.52">t</text>
  <text fill="#000000" font-family="Bitstream Vera Sans" font-size="10px" id="svg_7" stroke-linecap="square" stroke-width="1px" text-anchor="middle" transform="matrix(1 0 0 1 0 0)" x="354.37" xml:space="preserve" y="90.94">n</text>
  <text fill="#000000" font-family="Bitstream Vera Sans" font-size="10px" id="svg_8" stroke-linecap="square" stroke-width="1px" text-anchor="middle" transform="matrix(1 0 0 1 0 0)" x="354.62" xml:space="preserve" y="205.19">n</text>
  <text fill="#000000" font-family="Bitstream Vera Sans" font-size="10px" id="svg_9" stroke-linecap="square" stroke-width="1px" text-anchor="middle" transform="matrix(0.970237 0 0 1 3.50072 0)" x="115.56" xml:space="preserve" y="125.69">Аналоговый сигнал</text>
  <text fill="#000000" font-family="Bitstream Vera Sans" font-size="10px" id="svg_12" stroke-linecap="square" stroke-width="1px" text-anchor="middle" x="114.37" xml:space="preserve" y="241.44">Квантованный сигнал</text>
  <text fill="#000000" font-family="Bitstream Vera Sans" font-size="10px" id="svg_13" stroke-linecap="square" stroke-width="1px" text-anchor="middle" x="288.12" xml:space="preserve" y="125.94">Дискретный сигнал</text>
  <text fill="#000000" font-family="Bitstream Vera Sans" font-size="10px" id="svg_14" stroke-linecap="square" stroke-width="1px" text-anchor="middle" x="288.87" xml:space="preserve" y="241.94">Цифровой сигнал</text>
  <text fill="#000000" font-family="Bitstream Vera Sans" font-size="10px" id="svg_21" stroke-linecap="square" stroke-width="1px" text-anchor="middle" x="117.37" xml:space="preserve" y="14.44">Непрерывные</text>
 </g>
</svg>